<svg width="80" height="81" viewBox="0 0 80 81" fill="none" xmlns="http://www.w3.org/2000/svg">
<path fill-rule="evenodd" clip-rule="evenodd" d="M68.6633 5.24756C67.4099 5.24756 66.1866 5.61756 65.1466 6.31423L48.2133 17.5976C43.9642 20.4312 40.0786 23.775 36.6433 27.5542C43.6996 30.8712 49.3763 36.5479 52.6933 43.6042C56.4727 40.1679 59.8165 36.2811 62.6499 32.0309L73.9366 15.1009C74.5721 14.1463 74.9368 13.0371 74.9918 11.8916C75.0468 10.7461 74.7901 9.60711 74.2489 8.59598C73.7078 7.58485 72.9025 6.73944 71.9189 6.14978C70.9352 5.56012 69.8101 5.24831 68.6633 5.24756ZM40.9966 51.9976C43.1818 50.784 45.2922 49.4404 47.3166 47.9742C45.9712 44.5712 43.9421 41.4804 41.3546 38.8929C38.7671 36.3054 35.6763 34.2763 32.2733 32.9309C30.8071 34.9541 29.4636 37.0635 28.2499 39.2476L27.3233 40.9142C30.1771 41.7353 32.7756 43.2677 34.8751 45.3678C36.9746 47.4679 38.5063 50.0669 39.3266 52.9209L40.9999 51.9942L40.9966 51.9976ZM22.4999 45.2476C19.1847 45.2476 16.0053 46.5645 13.6611 48.9087C11.3169 51.2529 9.99994 54.4324 9.99994 57.7476C10.0001 58.4326 9.85952 59.1105 9.58686 59.7389C9.31419 60.3674 8.91527 60.9332 8.41487 61.4011C7.91446 61.869 7.32323 62.229 6.67788 62.459C6.03252 62.6889 5.34681 62.7837 4.66328 62.7376C4.21132 62.7072 3.75961 62.8002 3.3564 63.0066C2.95319 63.213 2.61363 63.5251 2.37402 63.9095C2.13441 64.2939 2.00374 64.7362 1.99597 65.1891C1.98821 65.642 2.10364 66.0885 2.32994 66.4809C4.25291 69.8215 7.22499 72.4337 10.7847 73.9121C14.3445 75.3904 18.2927 75.6521 22.0164 74.6566C25.7402 73.6611 29.0311 71.464 31.3782 68.4065C33.7252 65.349 34.9972 61.6021 34.9966 57.7476C34.9966 56.106 34.6733 54.4806 34.0451 52.964C33.4169 51.4474 32.4962 50.0695 31.3354 48.9087C30.1747 47.748 28.7967 46.8272 27.2802 46.1991C25.7636 45.5709 24.1415 45.2476 22.4999 45.2476Z" fill="#45577B"/>
</svg>
