<svg width="80" height="81" viewBox="0 0 80 81" fill="none" xmlns="http://www.w3.org/2000/svg">
<path fill-rule="evenodd" clip-rule="evenodd" d="M7.5 17.7476C7.5 15.0954 8.55357 12.5519 10.4289 10.6765C12.3043 8.80113 14.8478 7.74756 17.5 7.74756H62.5C65.1522 7.74756 67.6957 8.80113 69.5711 10.6765C71.4464 12.5519 72.5 15.0954 72.5 17.7476V50.2476C72.5 52.8997 71.4464 55.4433 69.5711 57.3186C67.6957 59.194 65.1522 60.2476 62.5 60.2476H52.5V61.1042C52.5 63.0942 53.29 65.0042 54.6967 66.4076L56.7667 68.4809C57.1159 68.8305 57.3536 69.2758 57.4499 69.7604C57.5462 70.2451 57.4967 70.7474 57.3076 71.204C57.1186 71.6605 56.7985 72.0508 56.3878 72.3255C55.9771 72.6003 55.4941 72.7471 55 72.7476H25C24.5059 72.7471 24.0229 72.6003 23.6122 72.3255C23.2015 72.0508 22.8814 71.6605 22.6924 71.204C22.5033 70.7474 22.4538 70.2451 22.5501 69.7604C22.6464 69.2758 22.8841 68.8305 23.2333 68.4809L25.3033 66.4076C26.709 65.0018 27.4991 63.0955 27.5 61.1076V60.2476H17.5C14.8478 60.2476 12.3043 59.194 10.4289 57.3186C8.55357 55.4433 7.5 52.8997 7.5 50.2476V17.7476ZM12.5 17.7476V42.7476C12.5 44.0736 13.0268 45.3454 13.9645 46.2831C14.9021 47.2208 16.1739 47.7476 17.5 47.7476H62.5C63.8261 47.7476 65.0978 47.2208 66.0355 46.2831C66.9732 45.3454 67.5 44.0736 67.5 42.7476V17.7476C67.5 16.4215 66.9732 15.1497 66.0355 14.212C65.0978 13.2743 63.8261 12.7476 62.5 12.7476H17.5C16.1739 12.7476 14.9021 13.2743 13.9645 14.212C13.0268 15.1497 12.5 16.4215 12.5 17.7476Z" fill="#45577B"/>
</svg>
